<?xml version="1.0" standalone="yes"?>
<svg xmlns="http://www.w3.org/2000/svg" viewBox="0 0 264 264" height="264" width="264">
 <defs>
  <linearGradient id="head" x1="0%" y1="25%" x2="100%" y2="75%">
   <stop offset="0%" stop-color="#8fafb8" />
   <stop offset="100%" stop-color="#708798" />
  </linearGradient>
 </defs>
 <style type="text/css">
  <![CDATA[
  svg { fill: transparent; }
  #chain-link-one, #chain-link-two { fill: url(#head); stroke: none; }
  #contour { fill: #4f6c7a; stroke: none; stroke-width: 0; }
  ]]>
 </style>
 <g transform="rotate(45) scale(1.35)" transform-origin="center">
  <path id="chain-link-one" d="M 94,109.35 A 50 50, 0, 0, 1, 112,96 V64 a 20 20, 0, 0, 1, 40,0 V122 A 20 20, 0, 0, 1, 124.25,140.5
  A 4 4, 0, 0, 0, 124,142 v 17 A 38 38, 0, 0, 0, 170,122 V64 a 38 38, 0, 0, 0, -76,0 z" />
  <path id="chain-link-two" d="M 170,154.65 A 50 50, 0, 0, 1, 152,168 V200 a 20 20, 0, 0, 1, -40,0 V142 A 20 20, 0, 0, 1, 139.75,123.5 A 4 4, 0, 0, 0, 140,122 v -17.25 A 38 38, 0, 0, 0, 94,142 V200 a 38 38, 0, 0, 0, 76,0 z" />
  <path id="contour" d="M 86,123 A 50 50, 0, 0, 1, 94,109.35 V64 a 38 38, 0, 0, 1, 76,0 V122 A 38 38, 0, 0, 1, 124,159 v8.2 A 46 46, 0, 0, 0, 178,122 V 64 a 46 46, 0, 0, 0, -92,0 z
  M 112,96 a 50 50, 0, 0, 1, 8, -2.75 V64 a 12 12, 0, 0, 1, 24,0 V122 A 12 12, 0, 0, 1, 132,134 a 8 8, 0, 0, 0, -7.8,6.5 A 20 20, 0, 0, 0, 152,122 V64 a20 20, 0, 0, 0, -40,0 z
  M 178,141 A 50 50, 0,  0, 1, 170,154.65 V 200a 38 38, 0, 0, 1, -76,0 V 142 A 38 38, 0, 0, 1, 140,104.75 v-8.2 A 46 46, 0, 0, 0, 86,142 V200 a 46 46, 0, 0, 0, 92,0 z
  M 152,168 a 50 50, 0, 0, 1, -8,2.75 V 200 a 12 12, 0, 0, 1, -24,0 V 142 A 12 12, 0, 0, 1, 132,130 a 8 8, 0, 0, 0, 7.8,-6.5 A 20 20, 0, 0, 0, 112,142 V 200 a 20 20, 0, 0, 0, 40, 0 z" />
 </g>
</svg>