<?xml version="1.0" standalone="yes"?>
<svg xmlns="http://www.w3.org/2000/svg" viewBox="0 0 264 264" height="264" width="264">
 <defs>
  <linearGradient id="plate" x1="25%" y1="0%" x2="75%" y2="100%">
   <stop offset="0%" stop-color="#ebf4fa" />
   <stop offset="50%" stop-color="#d2e2e8" />
   <stop offset="100%" stop-color="#b2d2d8" />
  </linearGradient>
 </defs>
 <style type="text/css">
  <![CDATA[
  svg { fill: transparent; }
  #old { fill: url(#plate); stroke-width: 12; stroke: #739ac3; stroke-linejoin: round; }
  #hole { fill: none; stroke: #222; }
  rect { fill: #739ac3; stroke: none; }
  ]]>
 </style>
 <g>
  <path id="old" d="M8,8 h 90 l 158,158 -90,90 -158,-158 z M 56,36 a 20 20, 0, 0, 0, -20,20 a 20 20, 0, 0, 0, 20,20 a 20 20, 0, 0, 0, 20,-20 a 20 20, 0, 0, 0, -20,-20 z" />
  <g id="marker" transform="rotate(45, 132, 132)">
   <rect x="108" y="114" width="48" height="36" rx="6" ry="6" />
   <rect x="164" y="114" width="36" height="36" rx="6" ry="6" />
  </g>
 </g>
</svg>

